<?xml version="1.0" standalone="no"?><!DOCTYPE svg PUBLIC "-//W3C//DTD SVG 1.1//EN" "http://www.w3.org/Graphics/SVG/1.1/DTD/svg11.dtd"><svg class="icon" width="200px" height="200.00px" viewBox="0 0 1024 1024" version="1.1" xmlns="http://www.w3.org/2000/svg"><path d="M1012.8 148.8v620.8h-32c-19.2 0-36.8 3.2-56 3.2l-49.6 3.2-84.8 3.2-52.8 3.2-81.6 3.2-52.8 3.2-78.4 3.2c-19.2 0-33.6 3.2-52.8 3.2l-84.8 6.4c-19.2 0-33.6 3.2-52.8 3.2l-84.8 3.2c-19.2 0-33.6 3.2-52.8 3.2l-81.6 6.4c-19.2 0-33.6 3.2-52.8 3.2l-56 3.2v-624h19.2c32-3.2 59.2-3.2 88-3.2l56-3.2 88-3.2 59.2-3.2 88-3.2 52.8-3.2 59.2-3.2 59.2-3.2 84.8-3.2 56-3.2 59.2-3.2 59.2-3.2 59.2-3.2 56-3.2c3.2-3.2 62.4-6.4 62.4-6.4zM785.6 411.2c9.6-3.2 16-9.6 25.6-12.8 28.8-12.8 56-28.8 81.6-40 9.6-3.2 12.8-9.6 12.8-19.2v-70.4c-6.4 0-12.8 3.2-16 3.2-28.8 3.2-56 3.2-84.8 3.2-16 0-33.6 3.2-49.6 3.2-25.6 0-46.4 3.2-72 3.2H664c-19.2-9.6-36.8-16-56-25.6l-3.2 3.2c-22.4 36.8-46.4 72-68.8 108.8-3.2 6.4 0 6.4 3.2 6.4 16 6.4 32 12.8 46.4 19.2 9.6 3.2 12.8 0 16-6.4 9.6-16 22.4-33.6 32-49.6 0-3.2 3.2-3.2 6.4-3.2 9.6 0 16 0 25.6-3.2 16 0 33.6-3.2 49.6-3.2 25.6 0 46.4-3.2 72-3.2h9.6c12.8 0 25.6 0 36.8-3.2 3.2 9.6 0 9.6-6.4 12.8-32 16-65.6 32-96 46.4-3.2 0-6.4 3.2-9.6 0-22.4-6.4-43.2-16-62.4-25.6-16-6.4-16-6.4-25.6 9.6 0 3.2-3.2 3.2-3.2 6.4-6.4 9.6-12.8 16-16 25.6l49.6 19.2c-28.8 12.8-52.8 28.8-81.6 40-3.2 3.2-6.4 3.2-9.6 3.2h-25.6v46.4h43.2c3.2 0 6.4 0 9.6-3.2 36.8-19.2 72-33.6 108.8-52.8 12.8-6.4 25.6-9.6 40-3.2 28.8 12.8 56 22.4 84.8 32 16 6.4 28.8 12.8 43.2 12.8 6.4 0 12.8 0 19.2-3.2l19.2-3.2v-49.6c-6.4 0-12.8 3.2-19.2 3.2h-19.2c-12.8-3.2-25.6-9.6-33.6-12.8-27.2-4.8-43.2-8-57.6-14.4z m-459.2-108.8V512c-19.2 0-36.8 3.2-56 3.2-28.8 3.2-56 3.2-84.8 3.2-16 0-28.8 0-43.2 3.2-9.6 0-19.2 0-28.8 3.2v49.6l147.2-9.6c-19.2 25.6-36.8 46.4-52.8 72-6.4 9.6-16 16-28.8 16H142.4c-9.6 0-19.2 0-28.8 3.2v43.2c0 3.2 3.2 3.2 6.4 3.2 28.8-3.2 56-3.2 88-6.4 12.8 0 28.8 0 40-3.2 3.2 0 3.2 0 6.4-3.2 9.6-12.8 16-22.4 25.6-33.6 22.4-28.8 43.2-56 62.4-84.8 6.4-6.4 9.6-16 22.4-16 28.8 0 56-3.2 84.8-3.2 12.8 0 25.6 0 33.6-3.2 3.2 0 6.4-3.2 6.4-3.2v-40l-3.2-3.2c-16 0-32 0-46.4 3.2-12.8 0-25.6 3.2-36.8 3.2V299.2l-76.8 3.2z m206.4 268.8h6.4c16 0 32-3.2 43.2-3.2 16 0 32 0 46.4-3.2h9.6l43.2-3.2v102.4l75.2-3.2v-102.4c6.4 0 12.8-3.2 19.2-3.2 19.2 0 33.6-3.2 52.8-3.2 25.6 0 46.4-3.2 72-3.2h6.4v-49.6c-12.8 0-28.8 3.2-40 3.2-25.6 0-46.4 3.2-72 3.2h-6.4c-9.6 0-19.2 0-32 3.2v-25.6l-75.2 3.2V512c-19.2 0-36.8 3.2-56 3.2-25.6 0-46.4 3.2-72 3.2-6.4 0-12.8 0-19.2 3.2-1.6 1.6-1.6 49.6-1.6 49.6z m-172.8-3.2l56 115.2 81.6-3.2v-3.2c-16-33.6-33.6-65.6-49.6-99.2-3.2-9.6-9.6-12.8-19.2-9.6-9.6 0-19.2 0-28.8 3.2-11.2-3.2-24-3.2-40-3.2z m172.8 108.8h9.6c19.2 0 36.8-3.2 56-3.2 6.4 0 6.4-3.2 9.6-6.4 12.8-22.4 25.6-43.2 33.6-68.8 3.2-6.4 6.4-16 12.8-22.4-6.4 0-12.8 3.2-19.2 3.2-16 0-28.8 0-43.2 3.2-6.4 0-12.8 3.2-16 9.6-3.2 9.6-9.6 16-12.8 22.4l-30.4 62.4z m387.2-22.4v-3.2l-46.4-81.6c-3.2-3.2-6.4-6.4-9.6-6.4-19.2 3.2-36.8 3.2-56 3.2-3.2 0-9.6 0-12.8 3.2 16 28.8 33.6 56 49.6 84.8 0 3.2 3.2 6.4 6.4 6.4h46.4c9.6-6.4 16-6.4 22.4-6.4zM286.4 486.4c-16-22.4-32-40-46.4-59.2-6.4-9.6-12.8-16-25.6-16-16 3.2-32 3.2-46.4 3.2-6.4 0-12.8 0-16 3.2v3.2c16 19.2 32 40 46.4 59.2 6.4 9.6 12.8 12.8 25.6 12.8 19.2-3.2 36.8-3.2 59.2-3.2 0 0 0-3.2 3.2-3.2z m1.6-91.2c-3.2-3.2-3.2-6.4-6.4-9.6-12.8-16-25.6-32-36.8-49.6-9.6-9.6-16-19.2-32-16-12.8 3.2-25.6 0-36.8 3.2-9.6 0-16 0-25.6 3.2 19.2 25.6 36.8 49.6 56 72 0 3.2 3.2 3.2 6.4 3.2 16 0 32-3.2 46.4-3.2 1.6 0 28.8-3.2 28.8-3.2z" fill="#d81e06" /></svg>