<?xml version="1.0" standalone="no"?><!DOCTYPE svg PUBLIC "-//W3C//DTD SVG 1.1//EN" "http://www.w3.org/Graphics/SVG/1.1/DTD/svg11.dtd"><svg class="icon" width="200px" height="200.00px" viewBox="0 0 1024 1024" version="1.1" xmlns="http://www.w3.org/2000/svg"><path d="M512 0C230.4 0 0 230.4 0 512s230.4 512 512 512 512-230.4 512-512S793.6 0 512 0zM243.2 358.4l54.4 70.4-73.6 3.2-54.4-70.4c-3.2 0 73.6-3.2 73.6-3.2z m0 86.4l54.4 70.4-73.6 3.2-57.6-70.4 76.8-3.2z m22.4 262.4l-128 6.4V672l76.8-3.2 60.8-80-140.8 6.4v-44.8l201.6-12.8V339.2l67.2-3.2v198.4l83.2-6.4v44.8l-128 6.4-92.8 128z m156.8-9.6L368 592l76.8-3.2 54.4 105.6-76.8 3.2z m176-403.2l54.4 25.6 156.8-9.6 67.2-3.2V384L768 441.6l86.4 32 32-3.2v44.8l-48 3.2-128-48-124.8 60.8-48 3.2v-44.8h32l83.2-41.6-48-19.2 28.8-41.6 80 28.8 105.6-51.2v-9.6l-188.8 9.6-38.4 60.8-57.6-22.4 64-108.8z m3.2 393.6l-67.2 3.2 44.8-89.6 67.2-3.2-44.8 89.6z m140.8-6.4l-70.4 3.2v-99.2l-140.8 6.4v-44.8l144-9.6v-22.4l67.2-3.2v22.4l140.8-6.4v44.8l-140.8 9.6v99.2z m86.4-6.4L777.6 592l67.2-3.2L896 672c3.2 0-67.2 3.2-67.2 3.2z" fill="#d81e06" /></svg>