<?xml version="1.0" standalone="no"?><!DOCTYPE svg PUBLIC "-//W3C//DTD SVG 1.1//EN" "http://www.w3.org/Graphics/SVG/1.1/DTD/svg11.dtd"><svg class="icon" width="200px" height="200.00px" viewBox="0 0 1024 1024" version="1.1" xmlns="http://www.w3.org/2000/svg"><path d="M865.8 1024H158.2C70.8 1024 0 953.2 0 865.8V158.2C0 70.8 70.8 0 158.2 0h707.6C953.2 0 1024 70.8 1024 158.2v707.6c0 87.4-70.8 158.2-158.2 158.2z" fill="#FFFFFF" /><path d="M171.8 75.6c58.4 63.4 120.8 123.6 181.8 184.6 5 97.8-0.6 196 3 294 1.2 15.2 18.8 19 31.4 18.6 92.8 0.2 185.6 0.2 278.4 0 62.4 61.4 122.8 124.8 185.8 185.2-189.6-3.2-379.2-0.4-569-1.4-27.4-1-55.2 2.4-82.4-1.8-16.8-3-28.6-19-28-35.8-0.8-214.2 1-428.8-1-643.4z" fill="#265BFF" /><path d="M171.8 800.2c8 8.6 16 17.2 24.4 25.4 1.8 29.4 0 58.8 0.8 88.4 0.2 5.8 5.8 9 11 9.4 9.2 0.4 18.2-0.4 27.4 0.4 8.6 7 15.8 16 24.2 23.4-24.8-0.4-49.6 0-74.6-0.2-7 0.2-13.6-6-13.2-13.2 0-44.8 0.4-89.2 0-133.6z m159.8 146.4c7.2-0.2 15 1 21.6-2.4 0.8-2.4 1.6-4.6 2.2-7 1 0.4 2.8 1 3.8 1.2 6.2 7.6 16.8 8.8 25.8 10 10.8-0.4 22-3.6 29.4-11.8 14.8-17 16.2-41.6 11.2-62.6-3.2-13-12-24.2-24-30-15.6-5.6-34.4-2.4-46 9.8-0.8-17.6 0.2-35.4-0.6-53-7.8-0.4-15.8-0.4-23.6 0.2 0.2 48.2 0.2 96.8 0.2 145.6z m64-77.2c7.2 6.8 8.2 17.4 8.4 26.8-0.2 9-2.2 19.6-10.2 25-12.6 9-33.8 3.4-37.8-12.4-5.2-15.8-2.2-39 16.2-44.4 7.8-2 17.4-1.4 23.4 5z m215.8 77.2c7-0.6 15.2 1.8 21.2-2.8 2-1.6 1.8-4.4 2.6-6.8 1 0.4 3 1 4 1.4 6.2 7.6 16.8 8.8 25.8 10 10.8-0.4 22-3.6 29.4-11.8 14.8-17 16.2-41.6 11.2-62.6-3-13-12-24.2-24-30.2-15.8-5.8-34-2-46.4 9.6-0.2-17.6 0.2-35.2-0.2-52.8-7.8-0.4-15.8-0.8-23.8 0.4 0.4 48.4 0.2 97 0.2 145.6z m63.2-78.2c7 5.6 8.8 15.2 9.2 23.6 0.4 9-0.8 19.2-7 26.2-11.8 12.6-36.6 7.6-41-9.6-5.2-15.8-2.2-39.2 16.2-44.6 7.6-1.4 16.6-1.2 22.6 4.4z m64.4-5.2c-3.4 7.8-7.4 15.6-10.2 23.8h22.8c4.8-12.8 9.8-25.6 14.6-38.4 4.4-8.2 5-18.8 11.6-25.4 1.4 6 3.8 11.8 6.2 17.6 5.2 13.8 10.4 27.4 15.8 41.2 0.4 1.2 1.4 3.8 1.8 5.2 7.8 0 15.6-0.2 23.4 0-1.4-2.8-2.8-5.4-4-8.2-11-26.2-23-52.2-33.8-78.6-7 0.2-14 0.2-20.8 0-9.2 21-18.4 42-27.4 62.8z m90.4 24c7.6-0.2 15.2-0.2 22.8 0 0-29-0.2-57.8 0-86.8-7.6 0.2-15.4 0.2-23 0 0.4 29 0.2 57.8 0.2 86.8z m-376.8 42.2c0 3 0.4 6.2 0.8 9.2 2.4 5 7.8 7.6 13.4 7.8 24.2 0.2 48.6-0.2 73 0.2-7.8-7.4-15.4-15-22.6-22.8-11.6-2.2-23.6 0.6-35.2-2-1.2-1.4-2.4-2.8-3.6-4-2-30.6 0.4-61.6-1.2-92.2-7.8-8.6-16.6-16.4-24.4-25 0 43-0.4 86-0.2 128.8z m-175.8 17h24c-0.2-35.2-0.2-70.4 0-105.6h-24v105.6z m280 0h24c-0.2-35.2-0.2-70.4 0-105.6h-23.8c-0.2 35.2-0.2 70.4-0.2 105.6z"  /></svg>